<?xml version="1.0" encoding="UTF-8" standalone="no"?>
<!-- Created with Inkscape (http://www.inkscape.org/) -->

<svg
   xmlns:dc="http://purl.org/dc/elements/1.1/"
   xmlns:cc="http://creativecommons.org/ns#"
   xmlns:rdf="http://www.w3.org/1999/02/22-rdf-syntax-ns#"
   xmlns:svg="http://www.w3.org/2000/svg"
   xmlns="http://www.w3.org/2000/svg"
   xmlns:sodipodi="http://sodipodi.sourceforge.net/DTD/sodipodi-0.dtd"
   xmlns:inkscape="http://www.inkscape.org/namespaces/inkscape"
   width="20mm"
   height="20mm"
   viewBox="0 0 20 20"
   version="1.1"
   id="svg8"
   inkscape:version="0.92.1 r15371"
   sodipodi:docname="logo.svg">
  <defs
     id="defs2" />
  <sodipodi:namedview
     id="base"
     pagecolor="#ffffff"
     bordercolor="#666666"
     borderopacity="1.0"
     inkscape:pageopacity="0.0"
     inkscape:pageshadow="2"
     inkscape:zoom="3.959798"
     inkscape:cx="42.383001"
     inkscape:cy="42.596346"
     inkscape:document-units="mm"
     inkscape:current-layer="layer1"
     showgrid="false"
     inkscape:snap-grids="false"
     inkscape:snap-page="true"
     inkscape:snap-bbox="true"
     inkscape:bbox-nodes="true"
     inkscape:snap-global="false"
     inkscape:window-width="1920"
     inkscape:window-height="1001"
     inkscape:window-x="-9"
     inkscape:window-y="-9"
     inkscape:window-maximized="1" />
  <metadata
     id="metadata5">
    <rdf:RDF>
      <cc:Work
         rdf:about="">
        <dc:format>image/svg+xml</dc:format>
        <dc:type
           rdf:resource="http://purl.org/dc/dcmitype/StillImage" />
        <dc:title></dc:title>
      </cc:Work>
    </rdf:RDF>
  </metadata>
  <g
     inkscape:label="Layer 1"
     inkscape:groupmode="layer"
     id="layer1"
     transform="translate(0,-277)">
    <path
       inkscape:connector-curvature="0"
       style="opacity:1;fill:#503314;fill-opacity:1;stroke:none;stroke-width:1.36500001;stroke-linecap:round;stroke-linejoin:miter;stroke-miterlimit:4;stroke-dasharray:none;stroke-dashoffset:261.92126465;stroke-opacity:1"
       d="m 104.63045,296.08453 c -12.489389,1.64089 -16.874592,14.53099 -16.872357,24.28862 0.0011,4.80863 11.075779,16.57175 16.157157,13.77743 11.38064,-6.25836 7.81099,-15.41943 21.79505,-15.42389 13.99183,0.01 10.41147,9.18627 21.79506,15.45175 5.08982,2.80142 16.1524,-8.98724 16.15715,-13.80529 -0.0113,-9.7602 -4.39714,-22.64786 -16.88993,-24.28862 -7.39363,-0.97106 -13.56191,4.93249 -21.06228,4.94018 -7.50635,-0.005 -13.68039,-5.91234 -21.07985,-4.94018 z"
       id="path4485-5"
       sodipodi:nodetypes="ssscscscs" />
    <path
       style="opacity:1;fill:#503314;fill-opacity:1;stroke:none;stroke-width:1.36500001;stroke-linecap:round;stroke-linejoin:miter;stroke-miterlimit:4;stroke-dasharray:none;stroke-dashoffset:261.92126465;stroke-opacity:1"
       d="m 133.19385,325.31826 c -1e-5,4.13305 -3.3505,7.48354 -7.48355,7.48354 -4.13305,0 -7.48354,-3.35049 -7.48355,-7.48354 0,-4.13305 3.3505,-2.72105 7.48355,-2.72105 4.13305,0 7.48355,-1.412 7.48355,2.72105 z"
       id="path4551"
       inkscape:connector-curvature="0"
       sodipodi:nodetypes="sssss" />
    <circle
       style="opacity:1;fill:#fffff8;fill-opacity:1;stroke:none;stroke-width:1.36500001;stroke-linecap:round;stroke-linejoin:miter;stroke-miterlimit:4;stroke-dasharray:none;stroke-dashoffset:261.92126465;stroke-opacity:1"
       id="path4556"
       cx="106.33327"
       cy="310.69604"
       r="9.7553377" />
    <circle
       style="opacity:1;fill:#fffff8;fill-opacity:1;stroke:none;stroke-width:1.36500001;stroke-linecap:round;stroke-linejoin:miter;stroke-miterlimit:4;stroke-dasharray:none;stroke-dashoffset:261.92126465;stroke-opacity:1"
       id="path4556-6"
       cx="145.08734"
       cy="310.69604"
       r="9.7553377" />
    <path
       style="fill:#503314;fill-opacity:1;stroke:none;stroke-width:0.26458332px;stroke-linecap:butt;stroke-linejoin:miter;stroke-opacity:1"
       d="m 96.541877,295.11011 c 0,0 -23.812498,-14.17411 -11.906248,15.11905 0,0 5.669639,-14.74108 11.906248,-15.11905 z"
       id="path4579"
       inkscape:connector-curvature="0"
       sodipodi:nodetypes="ccc" />
    <path
       style="fill:#503314;fill-opacity:1;stroke:none;stroke-width:0.26458332px;stroke-linecap:butt;stroke-linejoin:miter;stroke-opacity:1"
       d="m 154.87872,295.11011 c 0,0 23.8125,-14.17411 11.90625,15.11905 0,0 -5.66964,-14.74108 -11.90625,-15.11905 z"
       id="path4579-1"
       inkscape:connector-curvature="0"
       sodipodi:nodetypes="ccc" />
    <path
       style="opacity:1;fill:#503314;fill-opacity:1;stroke:none;stroke-width:1.36500001;stroke-linecap:round;stroke-linejoin:miter;stroke-miterlimit:4;stroke-dasharray:none;stroke-dashoffset:261.92126465;stroke-opacity:1"
       d="m 112.34683,336.0733 13.36347,-4.67003 13.36348,4.67002"
       id="rect4611"
       inkscape:connector-curvature="0"
       sodipodi:nodetypes="ccc" />
    <path
       style="opacity:1;vector-effect:none;fill:#503314;fill-opacity:1;stroke:none;stroke-width:5.15905571;stroke-linecap:round;stroke-linejoin:miter;stroke-miterlimit:4;stroke-dasharray:none;stroke-dashoffset:261.92126465;stroke-opacity:1"
       d="M 21.023438 22.5625 C 20.637457 22.571123 20.249066 22.60063 19.855469 22.652344 C 9.2259563 24.048879 5.4922384 35.019652 5.4941406 43.324219 C 5.4950851 47.416767 14.921419 57.42702 19.246094 55.048828 C 28.931974 49.722416 25.893321 41.925655 37.794922 41.921875 C 49.70314 41.929434 46.655362 49.739806 56.34375 55.072266 C 60.67561 57.456505 70.091659 47.424779 70.095703 43.324219 C 70.086254 35.01746 66.353111 24.048766 55.720703 22.652344 C 49.428107 21.825874 44.178363 26.84893 37.794922 26.855469 C 31.805672 26.851925 26.81315 22.433153 21.023438 22.5625 z M 21.304688 26.785156 A 8.3026075 8.3026075 0 0 1 29.605469 35.087891 A 8.3026075 8.3026075 0 0 1 21.304688 43.390625 A 8.3026075 8.3026075 0 0 1 13.001953 35.087891 A 8.3026075 8.3026075 0 0 1 21.304688 26.785156 z M 54.287109 26.785156 A 8.3026074 8.3026074 0 0 1 62.589844 35.087891 A 8.3026074 8.3026074 0 0 1 54.287109 43.390625 A 8.3026074 8.3026074 0 0 1 45.984375 35.087891 A 8.3026074 8.3026074 0 0 1 54.287109 26.785156 z "
       transform="matrix(0.26458333,0,0,0.26458333,0,277)"
       id="path4485-5-2" />
    <path
       style="opacity:1;fill:#503314;fill-opacity:1;stroke:none;stroke-width:1.36500013;stroke-linecap:round;stroke-linejoin:miter;stroke-miterlimit:4;stroke-dasharray:none;stroke-dashoffset:261.92126465;stroke-opacity:1"
       d="m 11.685165,289.57624 c -10e-7,0.93069 -0.754474,1.68517 -1.685165,1.68517 -0.9306893,0 -1.6851622,-0.75448 -1.6851636,-1.68517 0,-0.93069 0.7544736,-0.61273 1.6851636,-0.61273 0.930691,0 1.685165,-0.31796 1.685165,0.61273 z"
       id="path4551-5"
       inkscape:connector-curvature="0"
       sodipodi:nodetypes="sssss" />
    <path
       style="opacity:1;vector-effect:none;fill:#503314;fill-opacity:1;stroke:none;stroke-width:5.15905571;stroke-linecap:round;stroke-linejoin:miter;stroke-miterlimit:4;stroke-dasharray:none;stroke-dashoffset:989.93865967;stroke-opacity:1"
       d="M 38.035156 13.376953 A 35.895672 27.142855 0 0 0 23.699219 15.669922 C 28.405459 16.579125 32.746397 19.711857 37.794922 19.714844 C 42.965351 19.708721 47.392936 16.413304 52.232422 15.599609 A 35.895672 27.142855 0 0 0 38.035156 13.376953 z "
       transform="matrix(0.26458333,0,0,0.26458333,0,277)"
       id="path4726" />
    <path
       style="fill:#503314;fill-opacity:1;stroke:none;stroke-width:0.26458335px;stroke-linecap:butt;stroke-linejoin:miter;stroke-opacity:1"
       d="m 3.4317812,282.7739 c 0,0 -5.3621586,-3.19177 -2.68107899,3.40454 0,0 1.27670359,-3.31943 2.68107899,-3.40454 z"
       id="path4579-3"
       inkscape:connector-curvature="0"
       sodipodi:nodetypes="ccc" />
    <path
       style="fill:#503314;fill-opacity:1;stroke:none;stroke-width:0.26458335px;stroke-linecap:butt;stroke-linejoin:miter;stroke-opacity:1"
       d="m 16.568219,282.7739 c 0,0 5.362158,-3.19177 2.681079,3.40454 0,0 -1.276704,-3.31943 -2.681079,-3.40454 z"
       id="path4579-1-4"
       inkscape:connector-curvature="0"
       sodipodi:nodetypes="ccc" />
    <path
       style="opacity:1;fill:#503314;fill-opacity:1;stroke:none;stroke-width:1.36500013;stroke-linecap:round;stroke-linejoin:miter;stroke-miterlimit:4;stroke-dasharray:none;stroke-dashoffset:261.92126465;stroke-opacity:1"
       d="m 6.9907794,291.99809 3.0092216,-1.05161 3.009221,1.05161"
       id="rect4611-7"
       inkscape:connector-curvature="0"
       sodipodi:nodetypes="ccc" />
    <ellipse
       style="opacity:1;fill:none;fill-opacity:1;stroke:#503314;stroke-width:0.5;stroke-linecap:round;stroke-linejoin:miter;stroke-miterlimit:4;stroke-dasharray:none;stroke-dashoffset:261.92126465;stroke-opacity:1"
       id="path4673-7"
       cx="41.690845"
       cy="292.72369"
       rx="9.4973965"
       ry="7.1815472" />
    <path
       inkscape:connector-curvature="0"
       style="opacity:1;vector-effect:none;fill:#503314;fill-opacity:1;stroke:none;stroke-width:1.36500013;stroke-linecap:round;stroke-linejoin:miter;stroke-miterlimit:4;stroke-dasharray:none;stroke-dashoffset:261.92126465;stroke-opacity:1"
       d="m 36.880415,287.99636 c -2.812392,0.3695 -3.799863,3.27212 -3.799359,5.46937 2.5e-4,1.08282 2.494072,3.73167 3.638308,3.10244 2.562723,-1.40928 1.7589,-3.47219 4.907865,-3.47319 3.150716,0.002 2.344481,2.06858 4.907867,3.47946 1.146138,0.63083 3.637238,-2.02377 3.638308,-3.10871 -0.0025,-2.19783 -0.990159,-5.0999 -3.803317,-5.46937 -1.664916,-0.21867 -3.053906,1.11071 -4.742858,1.11244 -1.690299,-10e-4 -3.080585,-1.33136 -4.746814,-1.11244 z"
       id="path4485-5-2-1"
       sodipodi:nodetypes="ssscscscs" />
    <path
       style="opacity:1;fill:#503314;fill-opacity:1;stroke:none;stroke-width:1.36500013;stroke-linecap:round;stroke-linejoin:miter;stroke-miterlimit:4;stroke-dasharray:none;stroke-dashoffset:261.92126465;stroke-opacity:1"
       d="m 43.312394,294.57928 c -10e-7,0.93069 -0.754474,1.68517 -1.685165,1.68517 -0.930689,0 -1.685162,-0.75448 -1.685163,-1.68517 0,-0.93069 0.754473,-0.61273 1.685163,-0.61273 0.930691,0 1.685165,-0.31796 1.685165,0.61273 z"
       id="path4551-5-0"
       inkscape:connector-curvature="0"
       sodipodi:nodetypes="sssss" />
    <circle
       style="opacity:1;fill:#fffff8;fill-opacity:1;stroke:none;stroke-width:1.36500013;stroke-linecap:round;stroke-linejoin:miter;stroke-miterlimit:4;stroke-dasharray:none;stroke-dashoffset:261.92126465;stroke-opacity:1"
       id="path4556-4-4"
       cx="37.263859"
       cy="291.28662"
       r="2.1967316" />
    <path
       inkscape:connector-curvature="0"
       style="opacity:1;vector-effect:none;fill:#503314;fill-opacity:1;stroke:none;stroke-width:1.36500013;stroke-linecap:round;stroke-linejoin:miter;stroke-miterlimit:4;stroke-dasharray:none;stroke-dashoffset:989.93865967;stroke-opacity:1"
       d="m 41.690698,285.54235 a 9.4973965,7.1815471 0 0 0 -3.79305,0.60668 c 1.245192,0.24056 2.393732,1.06943 3.729488,1.07022 1.368009,-0.002 2.539474,-0.87353 3.819922,-1.08882 a 9.4973965,7.1815471 0 0 0 -3.75636,-0.58808 z"
       id="path4726-8" />
    <circle
       style="opacity:1;fill:#fffff8;fill-opacity:1;stroke:none;stroke-width:1.36500013;stroke-linecap:round;stroke-linejoin:miter;stroke-miterlimit:4;stroke-dasharray:none;stroke-dashoffset:261.92126465;stroke-opacity:1"
       id="path4556-6-2-9"
       cx="45.990601"
       cy="291.28662"
       r="2.1967316" />
    <path
       style="fill:#503314;fill-opacity:1;stroke:none;stroke-width:0.26458338px;stroke-linecap:butt;stroke-linejoin:miter;stroke-opacity:1"
       d="m 35.05901,287.77694 c 0,0 -5.362158,-3.19177 -2.681079,3.40454 0,0 1.276704,-3.31943 2.681079,-3.40454 z"
       id="path4579-3-4"
       inkscape:connector-curvature="0"
       sodipodi:nodetypes="ccc" />
    <path
       style="fill:#503314;fill-opacity:1;stroke:none;stroke-width:0.26458338px;stroke-linecap:butt;stroke-linejoin:miter;stroke-opacity:1"
       d="m 48.195448,287.77694 c 0,0 5.362158,-3.19177 2.681079,3.40454 0,0 -1.276704,-3.31943 -2.681079,-3.40454 z"
       id="path4579-1-4-1"
       inkscape:connector-curvature="0"
       sodipodi:nodetypes="ccc" />
    <path
       style="opacity:1;fill:#503314;fill-opacity:1;stroke:none;stroke-width:1.36500013;stroke-linecap:round;stroke-linejoin:miter;stroke-miterlimit:4;stroke-dasharray:none;stroke-dashoffset:261.92126465;stroke-opacity:1"
       d="m 38.618009,297.00113 3.009221,-1.05161 3.009221,1.05161"
       id="rect4611-7-9"
       inkscape:connector-curvature="0"
       sodipodi:nodetypes="ccc" />
  </g>
</svg>
