<svg version="1" xmlns="http://www.w3.org/2000/svg" width="933.333" height="933.333" viewBox="0 0 700.000000 700.000000"><path d="M327.8 124.5c-.2.1-4.3.5-9.3.9-15.4 1-32.8 3.5-51.5 7.2-19.7 4-47.1 11.6-45.4 12.7.5.3 4.7 1.5 9.4 2.7 7.7 2 30.9 10.1 38.4 13.4 1.7.8 7.8 3.2 13.6 5.5 46.3 17.7 71.8 19.7 108.9 8.5 6.4-2 23.1-8 37.1-13.3 28.1-10.9 34.8-13.1 46.2-15.7 4.3-1 7.6-1.9 7.4-2.1-.6-.6-27.5-8.2-31.1-8.9-1.6-.2-3.8-.7-4.7-1-.9-.3-2.7-.7-4-.9-5.4-1.1-18.5-3.5-21.3-3.9-5.3-.8-11.9-1.8-13.8-2.2-2.1-.4-10.1-1.1-23.7-2.3-8.6-.7-55.5-1.2-56.2-.6zM29 176.1c-10.8 2.2-20 9.3-24.2 18.9C1 203.6.1 210 .5 224.5c.3 10.2 1.1 16.2 3.9 30 2.4 11.9 10.3 37 17.7 55.8l4.2 10.9 4.7-10.9c7.5-17.1 10.8-23.8 18.8-38.3 22-39.7 42.5-62.1 62.4-68.1l6.9-2.1-2.9-1.8c-4.4-2.7-21.4-10.7-29.6-13.9-22.5-9-44.1-12.7-57.6-10zM642.5 177.1c-11.1 2.4-22 5.9-35 11.5-8.4 3.5-25.1 11.8-26.4 12.9-.1.2 1.7.9 4 1.5 26.9 6.8 56.9 45.1 83.9 107.3l4.7 10.8 1.4-3.3c.8-1.8 1.4-3.5 1.5-3.8.1-.7 1.3-3.8 2.9-7.5 5.5-13.1 14.3-42.9 17.6-59.4 2.6-13.3 3.3-33.7 1.4-41.8-3.3-14.1-10.3-23.2-21.1-27.3-8.1-3.1-22.5-3.5-34.9-.9zM176.4 211c-34.8 6.9-62.1 23.9-83.3 51.9C72.4 290.2 60.4 321 53.5 364c-1.3 8.6-2 18.5-2 31.5 0 13.5.1 14.3 3.3 21.9 7.2 17.4 20.8 36.3 39.6 55.2 11.2 11.2 29.9 26.4 32.4 26.4.5 0 1.2.4 1.4.9.6 1.7 16.4 9 23.8 11 13.6 3.8 19.9 2.7 33.5-5.7 11.6-7.1 21.3-14.5 29.5-22.4 12-11.6 17.1-17.9 32.3-39.3 19-27 28.7-36.5 45.2-44.4 16.6-7.9 35.3-11 62.5-10.4 45.4 1 67.6 12.4 92.3 47.3 29.1 41.1 42 54.4 68.5 70.3 7.9 4.7 15.7 7.6 19.2 7 .3 0 3-.3 6.2-.7 17.1-1.7 40.1-15.9 63.4-39.1 19.7-19.6 33.2-38.3 40.6-56.2 3.2-7.5 3.3-8.3 3.3-21.8 0-12.9-1-27.7-2-30.7-.2-.7-.6-3.1-.9-5.3-3.2-24.7-16.6-63.7-27.7-80.3-1.6-2.4-2.9-4.5-2.9-4.8 0-.4-2.2-3.7-5.7-8.3-23.7-32.2-53.2-50.2-91.8-56.1-6.1-.9-27.6-.6-33 .4-10.3 2.1-13.9 2.9-21.5 5.3-4.7 1.4-19.3 6.7-32.5 11.8-46.4 17.9-58.4 21-81 20.9-8.4-.1-21.3-1.2-22.6-2-.3-.2-2.1-.6-4-.9-9.3-1.6-23.2-6.3-51-17-39.5-15.4-52-18.6-72.9-19-9.9-.2-15.9.2-22.6 1.5zm35.6 38.5c24.3 4.5 47.2 23.3 56.2 46.5 4.7 11.8 4.9 13.1 5.3 27 .4 14.3-1.6 23.7-8 36.5-25.5 51.3-97.3 56.7-130.7 9.8-24.2-33.9-16.4-81.9 17.5-106.7 8-5.9 22.6-11.9 32.2-13.3 2.2-.3 4.2-.7 4.4-.9.5-.5 19 .4 23.1 1.1zm310.8 1.5c33.1 9.4 55.3 37.5 56.6 71.7.9 24.7-12.3 51.1-32.7 65.1-38.4 26.5-91.7 13.1-112.2-28.3-6.6-13.4-8.4-21.4-8-36.5.2-9.6.8-14.1 2.5-19.5 9.1-28.5 31.1-48.4 59.6-53.9 9.6-1.8 25.2-1.2 34.2 1.4z"/><path d="M304.1 418.1c-8.4 2.6-12.1 8.2-12.8 19.4-1.4 21.4 11.6 44.4 30.9 54.5l6.7 3.5-37.2 13c-20.5 7.1-39.2 13.7-41.7 14.7-4.3 1.6-.5 1.7 100 1.7h104.5L441 520c-7.4-2.7-26.2-9.3-41.7-14.7l-28.2-9.8 6.7-3.5c8.4-4.4 19.6-15.4 23.9-23.5 8.8-16.9 9.7-38.1 1.8-45.9-4.9-5-10.7-6-27.9-5.1-17.1.9-32 1-52.6.2-9.7-.4-16.8-.3-18.9.4z"/></svg>